<?xml version="1.0" encoding="UTF-8"?>
<svg version="1.1" xmlns="http://www.w3.org/2000/svg" width="512" height="512">
<path d="M0 0 C1.18385788 -0.00350464 2.36771576 -0.00700928 3.58744812 -0.01062012 C7.47535185 -0.01937237 11.36307118 -0.01360662 15.25097656 -0.00683594 C17.98268783 -0.00728294 20.71439592 -0.01012648 23.44610596 -0.01263428 C29.16868037 -0.01626243 34.89120301 -0.01151139 40.61376953 -0.00195312 C47.16589365 0.00886661 53.71789262 0.0054487 60.27001357 -0.00560594 C65.94529317 -0.01478735 71.62053582 -0.01591016 77.29582047 -0.0107286 C80.66275965 -0.00765951 84.02959526 -0.00787622 87.39653778 -0.01380157 C151.92157707 -0.10236608 213.22353152 16.43787163 261.02832031 61.82128906 C262.90891748 63.57538866 264.78017276 65.21807354 266.76660156 66.84082031 C269.08740492 68.79269162 271.01590276 70.63747861 272.95410156 72.94628906 C274.807482 75.1307745 276.6626465 77.28107437 278.62988281 79.36425781 C319.82286199 123.1176781 338.04956259 184.59282197 336.7734375 243.63330078 C334.52947594 305.34224361 306.73366699 363.62010025 262.08984375 405.92431641 C258.11380566 409.58800896 253.90130396 412.9345738 249.64160156 416.25878906 C248.64644531 417.05929687 247.65128906 417.85980469 246.62597656 418.68457031 C207.17764858 450.14484248 157.25792957 467.32581009 106.93115234 467.43579102 C105.59103222 467.44207363 104.25091378 467.44872194 102.91079712 467.45570374 C98.55284793 467.47651946 94.19489923 467.48707952 89.83691406 467.49707031 C88.32562112 467.50112522 86.81432834 467.50524235 85.30303574 467.50942039 C78.20330334 467.52841654 71.10358102 467.54266336 64.00382817 467.55103236 C55.85035317 467.56080724 47.69714943 467.58715672 39.54376996 467.62753326 C33.21048651 467.65780542 26.87728044 467.67251138 20.54392612 467.67581338 C16.77479792 467.67814955 13.00596139 467.68692247 9.23691177 467.71227455 C5.68919174 467.73575897 2.14195142 467.73970818 -1.40582657 467.72951317 C-3.30574953 467.72879145 -5.20564929 467.74773374 -7.10546875 467.76757812 C-22.26568998 467.67707228 -35.33863595 462.51065644 -46.48339844 452.21972656 C-56.33042204 441.92138105 -61.47411961 428.91422484 -61.4898262 414.71591854 C-61.49366735 413.40919939 -61.49750849 412.10248024 -61.50146604 410.75616354 C-61.50068588 409.31286039 -61.49980711 407.8695573 -61.49884033 406.42625427 C-61.50142532 404.88766485 -61.50443885 403.34907611 -61.50784373 401.81048828 C-61.51590141 397.58495038 -61.51770262 393.35942947 -61.5184412 389.13388479 C-61.52029392 384.57541218 -61.5278424 380.01694835 -61.53457642 375.45848083 C-61.54815192 365.49134019 -61.55418335 355.52420358 -61.55858707 345.55705523 C-61.56135105 339.33125457 -61.56558871 333.10545546 -61.57009125 326.87965584 C-61.58228332 309.63607983 -61.59258248 292.39250506 -61.59596634 275.14892483 C-61.59618591 274.04551925 -61.59640547 272.94211368 -61.59663169 271.80527157 C-61.59684997 270.69925059 -61.59706825 269.59322962 -61.59729314 268.45369285 C-61.5977366 266.21253677 -61.59818317 263.97138069 -61.59863281 261.73022461 C-61.59885424 260.61853773 -61.59907567 259.50685085 -61.59930381 258.36147649 C-61.60325042 240.35487887 -61.62070055 222.34832175 -61.64399233 204.34173977 C-61.66772261 185.84657247 -61.68016897 167.35142548 -61.68133426 148.85624272 C-61.68225012 138.47519383 -61.68798001 128.09419771 -61.70615387 117.71316338 C-61.72157753 108.87199815 -61.72666198 100.030902 -61.71841577 91.18972587 C-61.71451718 86.68180344 -61.71540007 82.17402001 -61.72947311 77.66611481 C-61.74225963 73.53236499 -61.74097312 69.39885794 -61.7288824 65.26510824 C-61.72693359 63.77650391 -61.72996578 62.2878821 -61.73872676 60.79930227 C-61.83692325 42.97382354 -58.26032206 28.7218743 -45.77636719 15.54785156 C-32.61735466 3.09036959 -17.63939466 -0.06532658 0 0 Z M44.64160156 107.25878906 C44.64160156 191.07878906 44.64160156 274.89878906 44.64160156 361.25878906 C128.53986593 363.11920024 128.53986593 363.11920024 194.64160156 323.25878906 C218.39711471 298.9084469 231.28522075 265.63839364 230.99511719 231.74902344 C230.51472751 214.13931033 226.80377861 195.98224669 218.64160156 180.25878906 C218.34801758 179.69224609 218.05443359 179.12570313 217.75195312 178.54199219 C201.53270843 147.61080918 175.50649807 123.56910054 141.93457031 112.66503906 C110.2255967 103.14904396 77.92060675 107.25878906 44.64160156 107.25878906 Z " fill="#EC1C24" transform="translate(118.3583984375,21.7412109375)"/>
<path d="M0 0 C1.18385788 -0.00350464 2.36771576 -0.00700928 3.58744812 -0.01062012 C7.47535185 -0.01937237 11.36307118 -0.01360662 15.25097656 -0.00683594 C17.98268783 -0.00728294 20.71439592 -0.01012648 23.44610596 -0.01263428 C29.16868037 -0.01626243 34.89120301 -0.01151139 40.61376953 -0.00195312 C47.16589365 0.00886661 53.71789262 0.0054487 60.27001357 -0.00560594 C65.94529317 -0.01478735 71.62053582 -0.01591016 77.29582047 -0.0107286 C80.66275965 -0.00765951 84.02959526 -0.00787622 87.39653778 -0.01380157 C151.92157707 -0.10236608 213.22353152 16.43787163 261.02832031 61.82128906 C262.90891748 63.57538866 264.78017276 65.21807354 266.76660156 66.84082031 C269.08740492 68.79269162 271.01590276 70.63747861 272.95410156 72.94628906 C274.807482 75.1307745 276.6626465 77.28107437 278.62988281 79.36425781 C290.16916837 91.62079329 299.38120236 105.75516118 307.59033203 120.39746094 C308.2953094 121.64566053 309.01330779 122.88658885 309.74365234 124.12011719 C314.98532838 133.00431386 315.92014514 141.73621614 316.01660156 151.88378906 C316.0373877 153.18920654 316.0373877 153.18920654 316.05859375 154.52099609 C315.96463477 167.63321968 310.54533069 179.85414236 301.60644531 189.41894531 C290.2382784 200.06388889 275.4334463 205.88814513 259.88769531 205.57128906 C243.94724277 204.03670879 231.50631563 196.09243699 220.96191406 184.39550781 C217.79078897 180.39303371 215.36420785 176.02427823 212.89160156 171.57128906 C196.6965994 142.6342616 169.21526076 121.34950534 137.32910156 112.32128906 C124.39421297 108.68959435 111.31133415 107.94776523 97.96191406 107.84472656 C96.5861712 107.82772952 95.21043829 107.80990638 93.8347168 107.79125977 C88.81212542 107.72883081 83.78934756 107.68220605 78.76660156 107.63378906 C67.50535156 107.51003906 56.24410156 107.38628906 44.64160156 107.25878906 C44.64160156 137.94878906 44.64160156 168.63878906 44.64160156 200.25878906 C44.31160156 200.25878906 43.98160156 200.25878906 43.64160156 200.25878906 C43.4340625 199.37578125 43.22652344 198.49277344 43.01269531 197.58300781 C40.82361525 189.05567084 37.91499287 182.43445395 32.64160156 175.25878906 C31.87847656 174.18628906 31.11535156 173.11378906 30.32910156 172.00878906 C20.53781598 161.98979916 7.38322936 156.30773822 -6.58862305 155.96606445 C-22.03343534 155.83510771 -34.11138704 160.31155352 -45.60839844 170.94628906 C-53.83806251 179.7324673 -57.62634579 189.7875618 -60.35839844 201.25878906 C-60.68839844 201.25878906 -61.01839844 201.25878906 -61.35839844 201.25878906 C-61.42863765 181.40422626 -61.48145944 161.54968885 -61.51383495 141.69502735 C-61.52927042 132.47510932 -61.55029608 123.25526871 -61.5847168 114.03540039 C-61.61472122 105.99460457 -61.63399754 97.95386485 -61.64066392 89.91301459 C-61.64455756 85.65975632 -61.65363805 81.40665851 -61.67558861 77.15345192 C-61.69612873 73.14057929 -61.7021973 69.12793142 -61.69772148 65.11501122 C-61.69853892 63.65141956 -61.70439938 62.18781947 -61.71601486 60.72427368 C-61.85062661 42.8697864 -58.25357839 28.71475785 -45.77636719 15.54785156 C-32.61735466 3.09036959 -17.63939466 -0.06532658 0 0 Z " fill="#EF66A4" transform="translate(118.3583984375,21.7412109375)"/>
<path d="M0 0 C0.61101562 0.41636719 1.22203125 0.83273438 1.8515625 1.26171875 C12.21307974 9.13931063 18.96459434 22.35279585 21 35 C21.14619319 37.96660766 21.13921398 40.92975325 21.13371277 43.89949036 C21.13597833 44.79649947 21.13824388 45.69350859 21.14057809 46.6176998 C21.14690882 49.6238084 21.14608932 52.6298718 21.14526367 55.63598633 C21.14825575 57.79120441 21.15165839 59.94642196 21.15544128 62.10163879 C21.16428074 67.95706789 21.16661938 73.81248237 21.16725707 79.66791749 C21.16820649 84.55605654 21.17188519 89.44419219 21.17542917 94.33232993 C21.18357359 105.86551663 21.18601342 117.39869552 21.18530273 128.93188477 C21.18470199 140.8282526 21.19525313 152.72457509 21.2110464 164.62093145 C21.22412314 174.83508766 21.22948657 185.04922906 21.22884732 195.26339358 C21.22859237 201.36357287 21.23144226 207.46371187 21.24202538 213.56388283 C21.25170851 219.30204319 21.251784 225.04012475 21.24450874 230.77828789 C21.24346316 232.88254537 21.24582421 234.98680776 21.2518692 237.09105682 C21.25959581 239.96731661 21.25493979 242.84330471 21.24723816 245.71955872 C21.25238172 246.54885401 21.25752529 247.37814931 21.26282471 248.23257476 C21.18038032 262.20145056 15.25385845 276.08669987 5.8515625 286.34375 C-6.40878819 298.24700309 -20.68843727 301.42035136 -37.17480469 301.36572266 C-48.27437814 301.15249504 -56.21001027 297.65098082 -65 291 C-65.61617187 290.54882812 -66.23234375 290.09765625 -66.8671875 289.6328125 C-77.21202962 281.49487003 -83.27602015 268.90287222 -85 256 C-85.1431118 253.00650652 -85.14783744 250.017156 -85.14717102 247.02062988 C-85.15084771 246.12699974 -85.1545244 245.23336959 -85.1583125 244.31265974 C-85.16930939 241.32366832 -85.17318641 238.33471171 -85.17700195 235.34570312 C-85.18326969 233.20007213 -85.18991677 231.05444221 -85.19691467 228.90881348 C-85.21792313 221.86629996 -85.22831509 214.82378631 -85.23828125 207.78125 C-85.24233022 205.352778 -85.24644718 202.92430612 -85.25063133 200.49583435 C-85.26967711 189.08348058 -85.2839086 177.67113325 -85.2922433 166.25876665 C-85.30200923 153.1053729 -85.32831469 139.95214772 -85.36874419 126.79881334 C-85.39895402 116.61936316 -85.41371686 106.43996117 -85.41702431 96.26046705 C-85.4193695 90.18687929 -85.4282607 84.11347174 -85.45348549 78.03993225 C-85.47685589 72.32055569 -85.48096337 66.60147685 -85.47072411 60.88206482 C-85.47023079 58.7916057 -85.47649035 56.70113147 -85.49028015 54.61071777 C-85.60957285 35.44284917 -83.01943918 19.27449948 -69.3125 4.6875 C-49.9158081 -13.62015153 -21.83609707 -15.56905838 0 0 Z " fill="#FBAE17" transform="translate(142,187)"/>
<path d="M0 0 C1.73697044 3.47394087 2.73053535 6.41379097 3.75 10.125 C7.00043421 20.91935242 12.64319012 29.9744524 21.9375 36.5 C22.95714844 37.2321875 23.97679688 37.964375 25.02734375 38.71875 C35.34363803 45.05898336 45.32231781 46.74325378 57.26953125 46.70703125 C59.13708069 46.72896545 59.13708069 46.72896545 61.0423584 46.75134277 C65.63221147 46.79822228 70.22241741 46.80297629 74.8125 46.8125 C85.104375 46.874375 95.39625 46.93625 106 47 C106 78.02 106 109.04 106 141 C105.67 141 105.34 141 105 141 C104.79246094 140.11699219 104.58492188 139.23398438 104.37109375 138.32421875 C102.18201369 129.79688178 99.27339131 123.17566489 94 116 C92.8553125 114.39125 92.8553125 114.39125 91.6875 112.75 C81.89621442 102.7310101 68.7416278 97.04894916 54.76977539 96.70727539 C39.3249631 96.57631864 27.2470114 101.05276445 15.75 111.6875 C7.52033593 120.47367824 3.73205265 130.52877273 1 142 C0.67 142 0.34 142 0 142 C0 95.14 0 48.28 0 0 Z " fill="#3A58A7" transform="translate(57,81)"/>
<path d="M0 0 C0.66 0.33 1.32 0.66 2 1 C0.92492371 2.29854721 -0.16043736 3.58858361 -1.25 4.875 C-1.85328125 5.59429687 -2.4565625 6.31359375 -3.078125 7.0546875 C-4.97087634 8.97052118 -6.53657727 9.96449045 -9 11 C-7.59155282 7.78475695 -5.89655214 5.67816132 -3.375 3.25 C-2.74335937 2.63640625 -2.11171875 2.0228125 -1.4609375 1.390625 C-0.73777344 0.70226563 -0.73777344 0.70226563 0 0 Z " fill="#DE4875" transform="translate(77,33)"/>
</svg>
